<svg width="165" height="42" viewBox="0 0 165 42" fill="none" xmlns="http://www.w3.org/2000/svg">
<path d="M48.4028 34.0144C47.3454 37.1423 45.4206 39.3078 42.574 40.6445C41.3782 41.2077 40.0698 41.5 38.7446 41.5H31.1333C22.6205 41.5 21.3192 41.4465 19.7468 41.0188C13.3216 39.2276 8.035 33.9877 5.97459 27.4646C5.40527 25.6199 4.91728 22.6524 5.2155 22.6524C5.29683 22.6524 5.83904 22.8395 6.43547 23.0801C7.46568 23.4812 7.5199 23.5614 7.92656 25.406C8.17056 26.4487 8.87543 28.3201 9.47187 29.5766C10.9087 32.4906 14.0536 35.6987 16.9002 37.1423C20.2619 38.8533 21.0481 38.9603 31.1604 38.9603C40.134 38.9603 40.2424 38.9603 41.598 38.3186C47.9148 35.4046 48.0774 26.3952 41.842 23.0801C40.7847 22.5187 40.4864 22.5187 24.4912 22.3851L10.2377 22.2679C8.9119 22.257 7.60472 21.9594 6.40836 21.3959C2.9382 19.7918 0.823571 16.9848 0.145805 13.1885C-0.694625 8.26941 2.1791 3.00278 6.67947 1.21158C8.14344 0.650167 8.60433 0.596699 16.4935 0.516496C21.265 0.463028 25.6298 0.543229 26.8498 0.703634C35.6065 1.87994 42.3029 8.93776 43.7126 18.5621L43.8753 19.6582L42.5197 19.0968C41.4624 18.669 41.1642 18.4017 41.1642 17.9472C41.1642 16.8243 39.8358 13.1885 38.8598 11.5844C36.6367 7.92186 33.3021 5.16824 29.588 3.91174C27.7715 3.27012 27.5276 3.27012 17.8491 3.27012L9.42316 3.27012C8.46034 3.27012 7.51434 3.519 6.67947 3.99194C5.02572 4.98111 3.61597 6.63863 2.91109 8.45655C1.71822 11.5845 2.72132 15.5946 5.26972 17.8135C7.49279 19.7384 7.19457 19.7116 24.0574 19.7116C40.6762 19.7116 41.0829 19.7651 43.7668 21.3424C45.5561 22.4118 46.8846 23.9356 47.8877 26.0476C48.4841 27.3576 48.6196 28.026 48.6739 30.2716C48.7281 31.9559 48.6196 33.3461 48.4028 34.0144Z" fill="#3772FF"/>
<path d="M38.0465 26.5021C35.6879 33.1055 29.1813 37.276 22.6477 36.3403C17.3069 35.565 12.5896 31.6618 10.8003 26.5021C10.5021 25.6734 10.2581 24.8179 10.2581 24.604C10.2581 24.3099 12.7523 24.2564 24.4912 24.2564C32.3262 24.2564 38.7243 24.3366 38.7243 24.4436C38.7243 24.5773 38.4261 25.4862 38.0465 26.5021Z" fill="#3772FF"/>
<path d="M24.4912 17.8402C12.1287 17.8402 10.2581 17.7868 10.2581 17.4392C10.2581 16.6907 11.5865 13.5895 12.5083 12.1726C14.65 8.85756 18.6624 6.31781 22.6477 5.75639C29.6693 4.76723 36.7994 9.84672 38.5616 17.0917L38.7243 17.8402H24.4912Z" fill="#3772FF"/>
<path d="M67.011 10.1062C69.0194 10.1062 70.7569 10.4845 72.2237 11.2411C73.6904 11.9754 74.9316 13.0657 75.947 14.5121L73.5099 16.8153C72.6524 15.5246 71.6821 14.6012 70.5989 14.0448C69.5384 13.4663 68.2747 13.177 66.8079 13.177C65.7248 13.177 64.8334 13.3216 64.1339 13.6109C63.4343 13.9002 62.9153 14.2896 62.5769 14.7792C62.2609 15.2465 62.103 15.7805 62.103 16.3813C62.103 17.0712 62.3399 17.672 62.8138 18.1838C63.3102 18.6956 64.2241 19.0961 65.5555 19.3854L70.0912 20.3868C72.2575 20.8541 73.792 21.5661 74.6946 22.523C75.5972 23.4798 76.0486 24.6926 76.0486 26.1612C76.0486 27.5186 75.6762 28.698 74.9316 29.6994C74.1869 30.7007 73.1489 31.4684 71.8175 32.0025C70.5087 32.5365 68.9629 32.8035 67.1803 32.8035C65.6007 32.8035 64.179 32.6033 62.9153 32.2027C61.6517 31.8022 60.5459 31.257 59.5982 30.5672C58.6504 29.8774 57.8719 29.0874 57.2626 28.1973L59.7674 25.7273C60.2413 26.5061 60.8393 27.2071 61.5614 27.8302C62.2835 28.431 63.1184 28.8983 64.0662 29.2321C65.0365 29.5658 66.1084 29.7327 67.2818 29.7327C68.3198 29.7327 69.2112 29.6103 69.9558 29.3656C70.7231 29.1208 71.2985 28.7648 71.6821 28.2975C72.0883 27.8079 72.2914 27.2293 72.2914 26.5618C72.2914 25.9165 72.0657 25.349 71.6144 24.8595C71.1857 24.3699 70.3733 23.9916 69.1773 23.7246L64.2693 22.6231C62.9153 22.3338 61.7983 21.9222 60.9183 21.3881C60.0382 20.8541 59.3838 20.2087 58.9551 19.4522C58.5263 18.6733 58.3119 17.8055 58.3119 16.8486C58.3119 15.6025 58.6504 14.4788 59.3274 13.4774C60.0269 12.4538 61.0311 11.6416 62.3399 11.0408C63.6487 10.4177 65.2058 10.1062 67.011 10.1062Z" fill="#3772FF"/>
<path d="M84.7341 10.44V32.4698H81.1123V10.44H84.7341Z" fill="#3772FF"/>
<path d="M100.465 10.44C102.857 10.44 104.752 11.0297 106.151 12.209C107.573 13.3884 108.284 14.9794 108.284 16.9822C108.284 19.0516 107.573 20.6538 106.151 21.7887C104.752 22.9013 102.857 23.4576 100.465 23.4576L100.126 23.6578H94.9474V32.4698H91.3594V10.44H100.465ZM100.194 20.6872C101.661 20.6872 102.744 20.3979 103.443 19.8193C104.165 19.2185 104.526 18.3062 104.526 17.0823C104.526 15.8807 104.165 14.9794 103.443 14.3786C102.744 13.7778 101.661 13.4774 100.194 13.4774H94.9474V20.6872H100.194ZM102.326 21.4215L109.604 32.4698H105.44L99.2123 22.8234L102.326 21.4215Z" fill="#3772FF"/>
<path d="M117.723 10.44V32.4698H114.101V10.44H117.723Z" fill="#3772FF"/>
<path d="M142.153 10.44V24.025C142.153 26.9401 141.374 29.1319 139.817 30.6006C138.26 32.0692 135.992 32.8035 133.014 32.8035C130.08 32.8035 127.824 32.0692 126.244 30.6006C124.687 29.1319 123.908 26.9401 123.908 24.025V10.44H127.53V23.5911C127.53 25.6606 127.982 27.196 128.884 28.1973C129.787 29.1987 131.163 29.6994 133.014 29.6994C134.887 29.6994 136.274 29.1987 137.177 28.1973C138.08 27.196 138.531 25.6606 138.531 23.5911V10.44H142.153Z" fill="#3772FF"/>
<path d="M155.962 10.1062C157.971 10.1062 159.708 10.4845 161.175 11.2411C162.642 11.9754 163.883 13.0657 164.898 14.5121L162.461 16.8153C161.604 15.5246 160.634 14.6012 159.55 14.0448C158.49 13.4663 157.226 13.177 155.759 13.177C154.676 13.177 153.785 13.3216 153.085 13.6109C152.386 13.9002 151.867 14.2896 151.528 14.7792C151.212 15.2465 151.054 15.7805 151.054 16.3813C151.054 17.0712 151.291 17.672 151.765 18.1838C152.262 18.6956 153.176 19.0961 154.507 19.3854L159.043 20.3868C161.209 20.8541 162.743 21.5661 163.646 22.523C164.549 23.4798 165 24.6926 165 26.1612C165 27.5186 164.628 28.698 163.883 29.6994C163.138 30.7007 162.1 31.4684 160.769 32.0025C159.46 32.5365 157.914 32.8035 156.132 32.8035C154.552 32.8035 153.13 32.6033 151.867 32.2027C150.603 31.8022 149.497 31.257 148.55 30.5672C147.602 29.8774 146.823 29.0874 146.214 28.1973L148.719 25.7273C149.193 26.5061 149.791 27.2071 150.513 27.8302C151.235 28.431 152.07 28.8983 153.018 29.2321C153.988 29.5658 155.06 29.7327 156.233 29.7327C157.271 29.7327 158.163 29.6103 158.907 29.3656C159.675 29.1208 160.25 28.7648 160.634 28.2975C161.04 27.8079 161.243 27.2293 161.243 26.5618C161.243 25.9165 161.017 25.349 160.566 24.8595C160.137 24.3699 159.325 23.9916 158.129 23.7246L153.221 22.6231C151.867 22.3338 150.75 21.9222 149.87 21.3881C148.99 20.8541 148.335 20.2087 147.907 19.4522C147.478 18.6733 147.263 17.8055 147.263 16.8486C147.263 15.6025 147.602 14.4788 148.279 13.4774C148.978 12.4538 149.983 11.6416 151.291 11.0408C152.6 10.4177 154.157 10.1062 155.962 10.1062Z" fill="#3772FF"/>
</svg>
